<svg width="86" height="86" viewBox="0 0 86 86" fill="none" xmlns="http://www.w3.org/2000/svg">
<ellipse cx="42.91" cy="42.965" rx="42.91" ry="42.965" fill="black"/>
<path fill-rule="evenodd" clip-rule="evenodd" d="M20.8903 42.965L43.4745 6.78394V33.2232L20.8903 42.965ZM64.9295 42.965L43.4745 33.236V6.78394L64.9295 42.965Z" fill="#828384"/>
<path fill-rule="evenodd" clip-rule="evenodd" d="M43.4745 56.5327L20.8903 43.8139L43.4745 33.9196V56.5327ZM64.9295 43.8161L43.4745 56.5327V33.9196L64.9295 43.8161Z" fill="#343535"/>
<path fill-rule="evenodd" clip-rule="evenodd" d="M20.8903 48.6183L43.4745 61.672V79.1461L20.8903 48.6183ZM64.9295 48.6183L43.4745 79.1461V61.6705L64.9295 48.6183Z" fill="#828384"/>
<path fill-rule="evenodd" clip-rule="evenodd" d="M64.9294 42.965L43.4744 33.236V6.78394L64.9294 42.965Z" fill="white" fill-opacity="0.7"/>
<path fill-rule="evenodd" clip-rule="evenodd" d="M64.9294 43.8161L43.4744 33.9196V56.5327L64.9294 43.8161Z" fill="#131313"/>
<path fill-rule="evenodd" clip-rule="evenodd" d="M64.9294 48.6183L43.4744 61.6705V79.1461L64.9294 48.6183Z" fill="white" fill-opacity="0.7"/>
</svg>
