<svg width="959" height="558" viewBox="0 0 959 558" fill="none" xmlns="http://www.w3.org/2000/svg">
<rect x="5" width="954" height="558" rx="30" fill="#303541" fill-opacity="0.67"/>
<rect width="42" height="42" rx="5" transform="matrix(1 0 0 -1 45 70)" fill="black"/>
<path d="M52.215 42.125V39.317H57.831V59H54.726V42.125H52.215ZM77.4495 40.235V59H74.3715V50.792H65.5425V59H62.4645V40.235H65.5425V48.281H74.3715V40.235H77.4495Z" fill="white"/>
<rect width="42" height="42" rx="5" transform="matrix(1 0 0 -1 97 70)" fill="white" fill-opacity="0.8"/>
<path d="M105.215 42.125V39.317H110.831V59H107.726V42.125H105.215ZM121.593 40.235C123.591 40.235 125.337 40.622 126.831 41.396C128.343 42.152 129.504 43.25 130.314 44.69C131.142 46.112 131.556 47.777 131.556 49.685C131.556 51.593 131.142 53.249 130.314 54.653C129.504 56.057 128.343 57.137 126.831 57.893C125.337 58.631 123.591 59 121.593 59H115.464V40.235H121.593ZM121.593 56.489C123.789 56.489 125.472 55.895 126.642 54.707C127.812 53.519 128.397 51.845 128.397 49.685C128.397 47.507 127.812 45.806 126.642 44.582C125.472 43.358 123.789 42.746 121.593 42.746H118.542V56.489H121.593Z" fill="black"/>
<rect width="42" height="42" rx="5" transform="matrix(1 0 0 -1 149 70)" fill="black"/>
<path d="M153.566 44.177C153.674 42.503 154.313 41.198 155.483 40.262C156.671 39.326 158.183 38.858 160.019 38.858C161.279 38.858 162.368 39.083 163.286 39.533C164.204 39.983 164.897 40.595 165.365 41.369C165.833 42.143 166.067 43.016 166.067 43.988C166.067 45.104 165.77 46.058 165.176 46.85C164.582 47.642 163.871 48.173 163.043 48.443V48.551C164.105 48.875 164.933 49.469 165.527 50.333C166.121 51.179 166.418 52.268 166.418 53.6C166.418 54.662 166.175 55.607 165.689 56.435C165.203 57.263 164.483 57.92 163.529 58.406C162.575 58.874 161.432 59.108 160.1 59.108C158.156 59.108 156.554 58.613 155.294 57.623C154.052 56.615 153.386 55.175 153.296 53.303H156.266C156.338 54.257 156.707 55.04 157.373 55.652C158.039 56.246 158.939 56.543 160.073 56.543C161.171 56.543 162.017 56.246 162.611 55.652C163.205 55.04 163.502 54.257 163.502 53.303C163.502 52.043 163.097 51.152 162.287 50.63C161.495 50.09 160.271 49.82 158.615 49.82H157.913V47.282H158.642C160.1 47.264 161.207 47.021 161.963 46.553C162.737 46.085 163.124 45.347 163.124 44.339C163.124 43.475 162.845 42.791 162.287 42.287C161.729 41.765 160.937 41.504 159.911 41.504C158.903 41.504 158.12 41.765 157.562 42.287C157.004 42.791 156.671 43.421 156.563 44.177H153.566ZM176.185 40.235C178.183 40.235 179.929 40.622 181.423 41.396C182.935 42.152 184.096 43.25 184.906 44.69C185.734 46.112 186.148 47.777 186.148 49.685C186.148 51.593 185.734 53.249 184.906 54.653C184.096 56.057 182.935 57.137 181.423 57.893C179.929 58.631 178.183 59 176.185 59H170.056V40.235H176.185ZM176.185 56.489C178.381 56.489 180.064 55.895 181.234 54.707C182.404 53.519 182.989 51.845 182.989 49.685C182.989 47.507 182.404 45.806 181.234 44.582C180.064 43.358 178.381 42.746 176.185 42.746H173.134V56.489H176.185Z" fill="white"/>
<rect width="42" height="42" rx="5" transform="matrix(1 0 0 -1 201 70)" fill="black"/>
<path d="M205.215 42.125V39.317H210.831V59H207.726V42.125H205.215ZM239.899 40.235L234.337 59H230.854L226.912 44.798L222.727 59L219.271 59.027L213.952 40.235H217.219L221.107 55.517L225.319 40.235H228.775L232.69 55.436L236.605 40.235H239.899Z" fill="white"/>
<rect width="42" height="42" rx="5" transform="matrix(1 0 0 -1 253 70)" fill="black"/>
<path d="M258.215 41.125V38.317H263.831V58H260.726V41.125H258.215ZM288.228 39.235V58H285.15V45.148L279.426 58H277.293L271.542 45.148V58H268.464V39.235H271.785L278.373 53.95L284.934 39.235H288.228Z" fill="white"/>
<rect width="42" height="42" rx="5" transform="matrix(1 0 0 -1 305 70)" fill="black"/>
<path d="M336.111 38.6H334.667V36H331.778V38.6H320.222V36H317.333V38.6H315.889C314.286 38.6 313.014 39.77 313.014 41.2L313 59.4C313 60.83 314.286 62 315.889 62H336.111C337.7 62 339 60.83 339 59.4V41.2C339 39.77 337.7 38.6 336.111 38.6ZM336.111 59.4H315.889V45.1H336.111V59.4ZM318.778 47.7H326V54.2H318.778V47.7Z" fill="#FFFDFD"/>
<rect width="152" height="37" transform="translate(557 30)" fill="black"/>
<path fill-rule="evenodd" clip-rule="evenodd" d="M582.48 49.3527L585.338 49.2722C586.672 49.2346 587.491 50.1026 587.495 51.3753C587.521 52.2974 587.131 53.1358 586.378 53.4752C586.095 53.6104 585.683 53.6538 585.334 53.6636L582.603 53.7406L582.48 49.3527ZM585.875 43.4656C586.456 43.7675 586.759 44.3953 586.78 45.1266C586.812 46.2713 586.167 47.085 585.024 47.1172L582.42 47.1906L582.312 43.3432L584.599 43.2788C585.107 43.2645 585.553 43.3156 585.875 43.4656ZM585.65 55.8504C585.691 57.3343 585.712 58.0763 585.712 58.0763C585.712 58.0763 585.214 58.0903 584.219 58.1183L584.157 55.8925L582.601 55.9363C582.643 57.4202 582.663 58.1622 582.663 58.1622C582.663 58.1622 582.166 58.1762 581.171 58.2042L581.109 55.9784C579.119 56.0345 578.124 56.0625 578.124 56.0625C578.124 56.0625 578.105 55.3842 578.067 54.0276L578.988 54.0017C579.464 53.9883 579.802 53.5968 579.79 53.1517L579.538 44.1533C579.525 43.6764 579.134 43.3374 578.69 43.3499C578.076 43.3672 577.769 43.3759 577.769 43.3759C577.769 43.3759 577.75 42.6975 577.712 41.3408L580.697 41.2567C580.655 39.7729 580.635 39.031 580.635 39.031C580.635 39.031 581.132 39.017 582.127 38.9889L582.189 41.2147L583.745 41.1708C583.704 39.687 583.683 38.9451 583.683 38.9451C583.683 38.9451 584.181 38.9311 585.176 38.903L585.239 41.1605C586.002 41.1709 586.608 41.2493 587.218 41.4867C588.566 41.9578 589.522 43.1719 589.568 44.8253C589.607 46.2244 589.004 47.387 587.846 48.0242C589.512 48.5182 590.283 49.9284 590.326 51.4865C590.351 53.4905 589.058 54.9907 587.484 55.5442C586.855 55.7529 586.285 55.8325 585.65 55.8504ZM568.422 48.9533C568.655 57.2839 575.609 63.8661 583.929 63.6316C592.248 63.3972 598.823 56.4339 598.59 48.1033C598.357 39.7726 591.404 33.1906 583.084 33.425C574.764 33.6594 568.189 40.6226 568.422 48.9533Z" fill="white"/>
<path opacity="0.7" d="M624.013 47.914C624.682 48.0387 625.231 48.373 625.662 48.917C626.093 49.461 626.308 50.0843 626.308 50.787C626.308 51.4217 626.149 51.9827 625.832 52.47C625.526 52.946 625.078 53.32 624.489 53.592C623.9 53.864 623.203 54 622.398 54H617.281V42.134H622.177C622.982 42.134 623.673 42.2643 624.251 42.525C624.84 42.7857 625.282 43.1483 625.577 43.613C625.883 44.0777 626.036 44.6047 626.036 45.194C626.036 45.8853 625.849 46.4633 625.475 46.928C625.112 47.3927 624.625 47.7213 624.013 47.914ZM619.661 47.03H621.837C622.404 47.03 622.84 46.9053 623.146 46.656C623.452 46.3953 623.605 46.027 623.605 45.551C623.605 45.075 623.452 44.7067 623.146 44.446C622.84 44.1853 622.404 44.055 621.837 44.055H619.661V47.03ZM622.058 52.062C622.636 52.062 623.084 51.926 623.401 51.654C623.73 51.382 623.894 50.9967 623.894 50.498C623.894 49.988 623.724 49.5913 623.384 49.308C623.044 49.0133 622.585 48.866 622.007 48.866H619.661V52.062H622.058ZM636.28 42.134V44.055H633.118V54H630.738V44.055H627.576V42.134H636.28ZM637.438 48.05C637.438 46.8827 637.699 45.84 638.22 44.922C638.753 43.9927 639.473 43.273 640.379 42.763C641.297 42.2417 642.323 41.981 643.456 41.981C644.782 41.981 645.944 42.321 646.941 43.001C647.939 43.681 648.636 44.6217 649.032 45.823H646.295C646.023 45.2563 645.638 44.8313 645.139 44.548C644.652 44.2647 644.085 44.123 643.439 44.123C642.748 44.123 642.13 44.2873 641.586 44.616C641.054 44.9333 640.634 45.3867 640.328 45.976C640.034 46.5653 639.886 47.2567 639.886 48.05C639.886 48.832 640.034 49.5233 640.328 50.124C640.634 50.7133 641.054 51.1723 641.586 51.501C642.13 51.8183 642.748 51.977 643.439 51.977C644.085 51.977 644.652 51.8353 645.139 51.552C645.638 51.2573 646.023 50.8267 646.295 50.26H649.032C648.636 51.4727 647.939 52.419 646.941 53.099C645.955 53.7677 644.794 54.102 643.456 54.102C642.323 54.102 641.297 53.847 640.379 53.337C639.473 52.8157 638.753 52.096 638.22 51.178C637.699 50.26 637.438 49.2173 637.438 48.05Z" fill="white"/>
<path opacity="0.7" d="M687.954 42.566L680.753 49.9014L673.553 42.566L671.341 44.8243L680.753 54.434L690.165 44.8243L687.954 42.566Z" fill="white"/>
<rect width="152" height="37" transform="translate(771 30)" fill="black"/>
<path opacity="0.7" d="M835.031 44.055V47.03H839.026V48.917H835.031V52.062H839.536V54H832.651V42.117H839.536V44.055H835.031ZM849.773 42.134V44.055H846.611V54H844.231V44.055H841.069V42.134H849.773ZM861.353 42.134V54H858.973V48.951H853.89V54H851.51V42.134H853.89V47.013H858.973V42.134H861.353Z" fill="white"/>
<path opacity="0.7" d="M901.954 42.566L894.753 49.9014L887.553 42.566L885.341 44.8243L894.753 54.434L904.165 44.8243L901.954 42.566Z" fill="white"/>
<ellipse cx="794.09" cy="49.11" rx="15.09" ry="15.11" fill="white"/>
<path fill-rule="evenodd" clip-rule="evenodd" d="M786.346 49.11L794.289 36.3858V45.684L786.346 49.11ZM801.834 49.11L794.289 45.6885V36.3858L801.834 49.11Z" fill="#828384"/>
<path fill-rule="evenodd" clip-rule="evenodd" d="M794.289 53.8816L786.346 49.4086L794.289 45.929V53.8816ZM801.834 49.4094L794.289 53.8816V45.929L801.834 49.4094Z" fill="#343535"/>
<path fill-rule="evenodd" clip-rule="evenodd" d="M786.346 51.0981L794.289 55.6889V61.8342L786.346 51.0981ZM801.834 51.0981L794.289 61.8342V55.6883L801.834 51.0981Z" fill="#828384"/>
<path fill-rule="evenodd" clip-rule="evenodd" d="M801.834 49.11L794.289 45.6885V36.3858L801.834 49.11Z" fill="#2F3030"/>
<path fill-rule="evenodd" clip-rule="evenodd" d="M801.834 49.4094L794.289 45.929V53.8816L801.834 49.4094Z" fill="#131313"/>
<path fill-rule="evenodd" clip-rule="evenodd" d="M801.834 51.0981L794.289 55.6883V61.8342L801.834 51.0981Z" fill="#2F3030"/>
<g opacity="0.7">
<path d="M751.211 51.0777L758.25 44.0388L751.211 37V42.2791H724.816V45.7985H751.211V51.0777Z" fill="white"/>
<path d="M729.039 47.3236L722 54.3624L729.039 61.4013V56.1221H755.434V52.6027H729.039V47.3236Z" fill="white"/>
</g>
<path d="M61.9305 103.583C61.9305 104.172 61.7775 104.728 61.4715 105.249C61.1768 105.759 60.7348 106.184 60.1455 106.524C59.5675 106.853 58.8818 107.045 58.0885 107.102V108.479H57.0005V107.085C55.8672 106.983 54.9548 106.643 54.2635 106.065C53.5722 105.476 53.2152 104.682 53.1925 103.685H55.7425C55.8105 104.501 56.2298 104.994 57.0005 105.164V101.917C56.1845 101.713 55.5272 101.509 55.0285 101.305C54.5298 101.101 54.0992 100.772 53.7365 100.319C53.3738 99.8657 53.1925 99.248 53.1925 98.466C53.1925 97.48 53.5438 96.6753 54.2465 96.052C54.9605 95.4287 55.8785 95.0717 57.0005 94.981V93.604H58.0885V94.981C59.1765 95.0717 60.0435 95.4003 60.6895 95.967C61.3468 96.5337 61.7152 97.3157 61.7945 98.313H59.2275C59.1935 97.9843 59.0745 97.701 58.8705 97.463C58.6778 97.2137 58.4172 97.038 58.0885 96.936V100.149C58.9385 100.364 59.6072 100.574 60.0945 100.778C60.5932 100.971 61.0238 101.294 61.3865 101.747C61.7492 102.189 61.9305 102.801 61.9305 103.583ZM55.6745 98.347C55.6745 98.721 55.7878 99.027 56.0145 99.265C56.2412 99.4917 56.5698 99.6787 57.0005 99.826V96.885C56.5925 96.9417 56.2695 97.0947 56.0315 97.344C55.7935 97.5933 55.6745 97.9277 55.6745 98.347ZM58.0885 105.198C58.5192 105.119 58.8535 104.943 59.0915 104.671C59.3408 104.399 59.4655 104.07 59.4655 103.685C59.4655 103.311 59.3465 103.011 59.1085 102.784C58.8705 102.557 58.5305 102.37 58.0885 102.223V105.198ZM72.2036 96.409L67.6816 107H65.2676L69.8236 96.681H64.0096V94.641H72.2036V96.409ZM73.629 100.642C73.629 98.6813 73.9804 97.1457 74.683 96.035C75.397 94.9243 76.5757 94.369 78.219 94.369C79.8624 94.369 81.0354 94.9243 81.738 96.035C82.452 97.1457 82.809 98.6813 82.809 100.642C82.809 102.614 82.452 104.161 81.738 105.283C81.0354 106.405 79.8624 106.966 78.219 106.966C76.5757 106.966 75.397 106.405 74.683 105.283C73.9804 104.161 73.629 102.614 73.629 100.642ZM80.463 100.642C80.463 99.8033 80.4064 99.1007 80.293 98.534C80.191 97.956 79.9757 97.4857 79.647 97.123C79.3297 96.7603 78.8537 96.579 78.219 96.579C77.5844 96.579 77.1027 96.7603 76.774 97.123C76.4567 97.4857 76.2414 97.956 76.128 98.534C76.026 99.1007 75.975 99.8033 75.975 100.642C75.975 101.503 76.026 102.229 76.128 102.818C76.23 103.396 76.4454 103.866 76.774 104.229C77.1027 104.58 77.5844 104.756 78.219 104.756C78.8537 104.756 79.3354 104.58 79.664 104.229C79.9927 103.866 80.208 103.396 80.31 102.818C80.412 102.229 80.463 101.503 80.463 100.642ZM84.6193 100.642C84.6193 98.6813 84.9706 97.1457 85.6733 96.035C86.3873 94.9243 87.5659 94.369 89.2093 94.369C90.8526 94.369 92.0256 94.9243 92.7283 96.035C93.4423 97.1457 93.7993 98.6813 93.7993 100.642C93.7993 102.614 93.4423 104.161 92.7283 105.283C92.0256 106.405 90.8526 106.966 89.2093 106.966C87.5659 106.966 86.3873 106.405 85.6733 105.283C84.9706 104.161 84.6193 102.614 84.6193 100.642ZM91.4533 100.642C91.4533 99.8033 91.3966 99.1007 91.2833 98.534C91.1813 97.956 90.9659 97.4857 90.6373 97.123C90.3199 96.7603 89.8439 96.579 89.2093 96.579C88.5746 96.579 88.0929 96.7603 87.7643 97.123C87.4469 97.4857 87.2316 97.956 87.1183 98.534C87.0163 99.1007 86.9653 99.8033 86.9653 100.642C86.9653 101.503 87.0163 102.229 87.1183 102.818C87.2203 103.396 87.4356 103.866 87.7643 104.229C88.0929 104.58 88.5746 104.756 89.2093 104.756C89.8439 104.756 90.3256 104.58 90.6543 104.229C90.9829 103.866 91.1983 103.396 91.3003 102.818C91.4023 102.229 91.4533 101.503 91.4533 100.642Z" fill="white" fill-opacity="0.7"/>
<path d="M61.6502 161.583C61.6502 162.172 61.4972 162.728 61.1912 163.249C60.8966 163.759 60.4546 164.184 59.8652 164.524C59.2872 164.853 58.6016 165.045 57.8082 165.102V166.479H56.7202V165.085C55.5869 164.983 54.6746 164.643 53.9832 164.065C53.2919 163.476 52.9349 162.682 52.9122 161.685H55.4622C55.5302 162.501 55.9496 162.994 56.7202 163.164V159.917C55.9042 159.713 55.2469 159.509 54.7482 159.305C54.2496 159.101 53.8189 158.772 53.4562 158.319C53.0936 157.866 52.9122 157.248 52.9122 156.466C52.9122 155.48 53.2636 154.675 53.9662 154.052C54.6802 153.429 55.5982 153.072 56.7202 152.981V151.604H57.8082V152.981C58.8962 153.072 59.7632 153.4 60.4092 153.967C61.0666 154.534 61.4349 155.316 61.5142 156.313H58.9472C58.9132 155.984 58.7942 155.701 58.5902 155.463C58.3976 155.214 58.1369 155.038 57.8082 154.936V158.149C58.6582 158.364 59.3269 158.574 59.8142 158.778C60.3129 158.971 60.7436 159.294 61.1062 159.747C61.4689 160.189 61.6502 160.801 61.6502 161.583ZM55.3942 156.347C55.3942 156.721 55.5076 157.027 55.7342 157.265C55.9609 157.492 56.2896 157.679 56.7202 157.826V154.885C56.3122 154.942 55.9892 155.095 55.7512 155.344C55.5132 155.593 55.3942 155.928 55.3942 156.347ZM57.8082 163.198C58.2389 163.119 58.5732 162.943 58.8112 162.671C59.0606 162.399 59.1852 162.07 59.1852 161.685C59.1852 161.311 59.0662 161.011 58.8282 160.784C58.5902 160.557 58.2502 160.37 57.8082 160.223V163.198ZM70.4613 155.701C70.3479 155.225 70.1496 154.868 69.8663 154.63C69.5943 154.392 69.1976 154.273 68.6763 154.273C67.8943 154.273 67.3163 154.59 66.9423 155.225C66.5796 155.848 66.3926 156.868 66.3813 158.285C66.6533 157.832 67.0499 157.48 67.5713 157.231C68.0926 156.97 68.6593 156.84 69.2713 156.84C70.0079 156.84 70.6596 156.999 71.2263 157.316C71.7929 157.633 72.2349 158.098 72.5523 158.71C72.8696 159.311 73.0283 160.036 73.0283 160.886C73.0283 161.691 72.8639 162.41 72.5353 163.045C72.2179 163.668 71.7476 164.156 71.1243 164.507C70.5009 164.858 69.7586 165.034 68.8973 165.034C67.7186 165.034 66.7893 164.773 66.1093 164.252C65.4406 163.731 64.9703 163.005 64.6983 162.076C64.4376 161.135 64.3073 159.979 64.3073 158.608C64.3073 156.534 64.6643 154.97 65.3783 153.916C66.0923 152.851 67.2199 152.318 68.7613 152.318C69.9513 152.318 70.8749 152.641 71.5323 153.287C72.1896 153.933 72.5693 154.738 72.6713 155.701H70.4613ZM68.7273 158.795C68.1266 158.795 67.6223 158.971 67.2143 159.322C66.8063 159.673 66.6023 160.183 66.6023 160.852C66.6023 161.521 66.7893 162.048 67.1633 162.433C67.5486 162.818 68.0869 163.011 68.7783 163.011C69.3903 163.011 69.8719 162.824 70.2233 162.45C70.5859 162.076 70.7673 161.572 70.7673 160.937C70.7673 160.28 70.5916 159.758 70.2403 159.373C69.9003 158.988 69.3959 158.795 68.7273 158.795ZM74.9093 158.642C74.9093 156.681 75.2606 155.146 75.9633 154.035C76.6773 152.924 77.856 152.369 79.4993 152.369C81.1426 152.369 82.3156 152.924 83.0183 154.035C83.7323 155.146 84.0893 156.681 84.0893 158.642C84.0893 160.614 83.7323 162.161 83.0183 163.283C82.3156 164.405 81.1426 164.966 79.4993 164.966C77.856 164.966 76.6773 164.405 75.9633 163.283C75.2606 162.161 74.9093 160.614 74.9093 158.642ZM81.7433 158.642C81.7433 157.803 81.6866 157.101 81.5733 156.534C81.4713 155.956 81.256 155.486 80.9273 155.123C80.61 154.76 80.134 154.579 79.4993 154.579C78.8646 154.579 78.383 154.76 78.0543 155.123C77.737 155.486 77.5216 155.956 77.4083 156.534C77.3063 157.101 77.2553 157.803 77.2553 158.642C77.2553 159.503 77.3063 160.229 77.4083 160.818C77.5103 161.396 77.7256 161.866 78.0543 162.229C78.383 162.58 78.8646 162.756 79.4993 162.756C80.134 162.756 80.6156 162.58 80.9443 162.229C81.273 161.866 81.4883 161.396 81.5903 160.818C81.6923 160.229 81.7433 159.503 81.7433 158.642ZM85.8995 158.642C85.8995 156.681 86.2509 155.146 86.9535 154.035C87.6675 152.924 88.8462 152.369 90.4895 152.369C92.1329 152.369 93.3059 152.924 94.0085 154.035C94.7225 155.146 95.0795 156.681 95.0795 158.642C95.0795 160.614 94.7225 162.161 94.0085 163.283C93.3059 164.405 92.1329 164.966 90.4895 164.966C88.8462 164.966 87.6675 164.405 86.9535 163.283C86.2509 162.161 85.8995 160.614 85.8995 158.642ZM92.7335 158.642C92.7335 157.803 92.6769 157.101 92.5635 156.534C92.4615 155.956 92.2462 155.486 91.9175 155.123C91.6002 154.76 91.1242 154.579 90.4895 154.579C89.8549 154.579 89.3732 154.76 89.0445 155.123C88.7272 155.486 88.5119 155.956 88.3985 156.534C88.2965 157.101 88.2455 157.803 88.2455 158.642C88.2455 159.503 88.2965 160.229 88.3985 160.818C88.5005 161.396 88.7159 161.866 89.0445 162.229C89.3732 162.58 89.8549 162.756 90.4895 162.756C91.1242 162.756 91.6059 162.58 91.9345 162.229C92.2632 161.866 92.4785 161.396 92.5805 160.818C92.6825 160.229 92.7335 159.503 92.7335 158.642Z" fill="white" fill-opacity="0.7"/>
<path d="M62.117 219.583C62.117 220.172 61.964 220.728 61.658 221.249C61.3634 221.759 60.9214 222.184 60.332 222.524C59.754 222.853 59.0684 223.045 58.275 223.102V224.479H57.187V223.085C56.0537 222.983 55.1414 222.643 54.45 222.065C53.7587 221.476 53.4017 220.682 53.379 219.685H55.929C55.997 220.501 56.4164 220.994 57.187 221.164V217.917C56.371 217.713 55.7137 217.509 55.215 217.305C54.7164 217.101 54.2857 216.772 53.923 216.319C53.5604 215.866 53.379 215.248 53.379 214.466C53.379 213.48 53.7304 212.675 54.433 212.052C55.147 211.429 56.065 211.072 57.187 210.981V209.604H58.275V210.981C59.363 211.072 60.23 211.4 60.876 211.967C61.5334 212.534 61.9017 213.316 61.981 214.313H59.414C59.38 213.984 59.261 213.701 59.057 213.463C58.8644 213.214 58.6037 213.038 58.275 212.936V216.149C59.125 216.364 59.7937 216.574 60.281 216.778C60.7797 216.971 61.2104 217.294 61.573 217.747C61.9357 218.189 62.117 218.801 62.117 219.583ZM55.861 214.347C55.861 214.721 55.9744 215.027 56.201 215.265C56.4277 215.492 56.7564 215.679 57.187 215.826V212.885C56.779 212.942 56.456 213.095 56.218 213.344C55.98 213.593 55.861 213.928 55.861 214.347ZM58.275 221.198C58.7057 221.119 59.04 220.943 59.278 220.671C59.5274 220.399 59.652 220.07 59.652 219.685C59.652 219.311 59.533 219.011 59.295 218.784C59.057 218.557 58.717 218.37 58.275 218.223V221.198ZM72.8321 212.664H67.3241V215.571C67.5621 215.276 67.9021 215.038 68.3441 214.857C68.7861 214.664 69.2564 214.568 69.7551 214.568C70.6617 214.568 71.4041 214.766 71.9821 215.163C72.5601 215.56 72.9794 216.07 73.2401 216.693C73.5007 217.305 73.6311 217.962 73.6311 218.665C73.6311 219.968 73.2571 221.017 72.5091 221.81C71.7724 222.603 70.7184 223 69.3471 223C68.0551 223 67.0237 222.677 66.2531 222.031C65.4824 221.385 65.0461 220.541 64.9441 219.498H67.2561C67.3581 219.951 67.5847 220.314 67.9361 220.586C68.2987 220.858 68.7577 220.994 69.3131 220.994C69.9817 220.994 70.4861 220.784 70.8261 220.365C71.1661 219.946 71.3361 219.39 71.3361 218.699C71.3361 217.996 71.1604 217.464 70.8091 217.101C70.4691 216.727 69.9647 216.54 69.2961 216.54C68.8201 216.54 68.4234 216.659 68.1061 216.897C67.7887 217.135 67.5621 217.452 67.4261 217.849H65.1481V210.573H72.8321V212.664ZM75.4425 216.642C75.4425 214.681 75.7938 213.146 76.4965 212.035C77.2105 210.924 78.3892 210.369 80.0325 210.369C81.6758 210.369 82.8488 210.924 83.5515 212.035C84.2655 213.146 84.6225 214.681 84.6225 216.642C84.6225 218.614 84.2655 220.161 83.5515 221.283C82.8488 222.405 81.6758 222.966 80.0325 222.966C78.3892 222.966 77.2105 222.405 76.4965 221.283C75.7938 220.161 75.4425 218.614 75.4425 216.642ZM82.2765 216.642C82.2765 215.803 82.2198 215.101 82.1065 214.534C82.0045 213.956 81.7892 213.486 81.4605 213.123C81.1432 212.76 80.6672 212.579 80.0325 212.579C79.3978 212.579 78.9162 212.76 78.5875 213.123C78.2702 213.486 78.0548 213.956 77.9415 214.534C77.8395 215.101 77.7885 215.803 77.7885 216.642C77.7885 217.503 77.8395 218.229 77.9415 218.818C78.0435 219.396 78.2588 219.866 78.5875 220.229C78.9162 220.58 79.3978 220.756 80.0325 220.756C80.6672 220.756 81.1488 220.58 81.4775 220.229C81.8062 219.866 82.0215 219.396 82.1235 218.818C82.2255 218.229 82.2765 217.503 82.2765 216.642ZM86.4327 216.642C86.4327 214.681 86.7841 213.146 87.4867 212.035C88.2007 210.924 89.3794 210.369 91.0227 210.369C92.6661 210.369 93.8391 210.924 94.5417 212.035C95.2557 213.146 95.6127 214.681 95.6127 216.642C95.6127 218.614 95.2557 220.161 94.5417 221.283C93.8391 222.405 92.6661 222.966 91.0227 222.966C89.3794 222.966 88.2007 222.405 87.4867 221.283C86.7841 220.161 86.4327 218.614 86.4327 216.642ZM93.2667 216.642C93.2667 215.803 93.2101 215.101 93.0967 214.534C92.9947 213.956 92.7794 213.486 92.4507 213.123C92.1334 212.76 91.6574 212.579 91.0227 212.579C90.3881 212.579 89.9064 212.76 89.5777 213.123C89.2604 213.486 89.0451 213.956 88.9317 214.534C88.8297 215.101 88.7787 215.803 88.7787 216.642C88.7787 217.503 88.8297 218.229 88.9317 218.818C89.0337 219.396 89.2491 219.866 89.5777 220.229C89.9064 220.58 90.3881 220.756 91.0227 220.756C91.6574 220.756 92.1391 220.58 92.4677 220.229C92.7964 219.866 93.0117 219.396 93.1137 218.818C93.2157 218.229 93.2667 217.503 93.2667 216.642Z" fill="white" fill-opacity="0.7"/>
<path d="M61.9676 277.583C61.9676 278.172 61.8146 278.728 61.5086 279.249C61.2139 279.759 60.7719 280.184 60.1826 280.524C59.6046 280.853 58.9189 281.045 58.1256 281.102V282.479H57.0376V281.085C55.9043 280.983 54.9919 280.643 54.3006 280.065C53.6093 279.476 53.2523 278.682 53.2296 277.685H55.7796C55.8476 278.501 56.2669 278.994 57.0376 279.164V275.917C56.2216 275.713 55.5643 275.509 55.0656 275.305C54.5669 275.101 54.1363 274.772 53.7736 274.319C53.4109 273.866 53.2296 273.248 53.2296 272.466C53.2296 271.48 53.5809 270.675 54.2836 270.052C54.9976 269.429 55.9156 269.072 57.0376 268.981V267.604H58.1256V268.981C59.2136 269.072 60.0806 269.4 60.7266 269.967C61.3839 270.534 61.7523 271.316 61.8316 272.313H59.2646C59.2306 271.984 59.1116 271.701 58.9076 271.463C58.7149 271.214 58.4543 271.038 58.1256 270.936V274.149C58.9756 274.364 59.6443 274.574 60.1316 274.778C60.6303 274.971 61.0609 275.294 61.4236 275.747C61.7863 276.189 61.9676 276.801 61.9676 277.583ZM55.7116 272.347C55.7116 272.721 55.8249 273.027 56.0516 273.265C56.2783 273.492 56.6069 273.679 57.0376 273.826V270.885C56.6296 270.942 56.3066 271.095 56.0686 271.344C55.8306 271.593 55.7116 271.928 55.7116 272.347ZM58.1256 279.198C58.5563 279.119 58.8906 278.943 59.1286 278.671C59.3779 278.399 59.5026 278.07 59.5026 277.685C59.5026 277.311 59.3836 277.011 59.1456 276.784C58.9076 276.557 58.5676 276.37 58.1256 276.223V279.198ZM64.2507 278.586V276.716L69.8097 268.76H72.5807V276.512H74.0767V278.586H72.5807V281H70.2007V278.586H64.2507ZM70.3537 271.31L66.8687 276.512H70.3537V271.31ZM75.5919 274.642C75.5919 272.681 75.9433 271.146 76.6459 270.035C77.3599 268.924 78.5386 268.369 80.1819 268.369C81.8253 268.369 82.9983 268.924 83.7009 270.035C84.4149 271.146 84.7719 272.681 84.7719 274.642C84.7719 276.614 84.4149 278.161 83.7009 279.283C82.9983 280.405 81.8253 280.966 80.1819 280.966C78.5386 280.966 77.3599 280.405 76.6459 279.283C75.9433 278.161 75.5919 276.614 75.5919 274.642ZM82.4259 274.642C82.4259 273.803 82.3693 273.101 82.2559 272.534C82.1539 271.956 81.9386 271.486 81.6099 271.123C81.2926 270.76 80.8166 270.579 80.1819 270.579C79.5473 270.579 79.0656 270.76 78.7369 271.123C78.4196 271.486 78.2043 271.956 78.0909 272.534C77.9889 273.101 77.9379 273.803 77.9379 274.642C77.9379 275.503 77.9889 276.229 78.0909 276.818C78.1929 277.396 78.4083 277.866 78.7369 278.229C79.0656 278.58 79.5473 278.756 80.1819 278.756C80.8166 278.756 81.2983 278.58 81.6269 278.229C81.9556 277.866 82.1709 277.396 82.2729 276.818C82.3749 276.229 82.4259 275.503 82.4259 274.642ZM86.5822 274.642C86.5822 272.681 86.9335 271.146 87.6362 270.035C88.3502 268.924 89.5288 268.369 91.1722 268.369C92.8155 268.369 93.9885 268.924 94.6912 270.035C95.4052 271.146 95.7622 272.681 95.7622 274.642C95.7622 276.614 95.4052 278.161 94.6912 279.283C93.9885 280.405 92.8155 280.966 91.1722 280.966C89.5288 280.966 88.3502 280.405 87.6362 279.283C86.9335 278.161 86.5822 276.614 86.5822 274.642ZM93.4162 274.642C93.4162 273.803 93.3595 273.101 93.2462 272.534C93.1442 271.956 92.9288 271.486 92.6002 271.123C92.2828 270.76 91.8068 270.579 91.1722 270.579C90.5375 270.579 90.0558 270.76 89.7272 271.123C89.4098 271.486 89.1945 271.956 89.0812 272.534C88.9792 273.101 88.9282 273.803 88.9282 274.642C88.9282 275.503 88.9792 276.229 89.0812 276.818C89.1832 277.396 89.3985 277.866 89.7272 278.229C90.0558 278.58 90.5375 278.756 91.1722 278.756C91.8068 278.756 92.2885 278.58 92.6172 278.229C92.9458 277.866 93.1612 277.396 93.2632 276.818C93.3652 276.229 93.4162 275.503 93.4162 274.642Z" fill="white" fill-opacity="0.7"/>
<path d="M61.9989 335.583C61.9989 336.172 61.8459 336.728 61.5399 337.249C61.2452 337.759 60.8032 338.184 60.2139 338.524C59.6359 338.853 58.9502 339.045 58.1569 339.102V340.479H57.0689V339.085C55.9355 338.983 55.0232 338.643 54.3319 338.065C53.6405 337.476 53.2835 336.682 53.2609 335.685H55.8109C55.8789 336.501 56.2982 336.994 57.0689 337.164V333.917C56.2529 333.713 55.5955 333.509 55.0969 333.305C54.5982 333.101 54.1675 332.772 53.8049 332.319C53.4422 331.866 53.2609 331.248 53.2609 330.466C53.2609 329.48 53.6122 328.675 54.3149 328.052C55.0289 327.429 55.9469 327.072 57.0689 326.981V325.604H58.1569V326.981C59.2449 327.072 60.1119 327.4 60.7579 327.967C61.4152 328.534 61.7835 329.316 61.8629 330.313H59.2959C59.2619 329.984 59.1429 329.701 58.9389 329.463C58.7462 329.214 58.4855 329.038 58.1569 328.936V332.149C59.0069 332.364 59.6755 332.574 60.1629 332.778C60.6615 332.971 61.0922 333.294 61.4549 333.747C61.8175 334.189 61.9989 334.801 61.9989 335.583ZM55.7429 330.347C55.7429 330.721 55.8562 331.027 56.0829 331.265C56.3095 331.492 56.6382 331.679 57.0689 331.826V328.885C56.6609 328.942 56.3379 329.095 56.0999 329.344C55.8619 329.593 55.7429 329.928 55.7429 330.347ZM58.1569 337.198C58.5875 337.119 58.9219 336.943 59.1599 336.671C59.4092 336.399 59.5339 336.07 59.5339 335.685C59.5339 335.311 59.4149 335.011 59.1769 334.784C58.9389 334.557 58.5989 334.37 58.1569 334.223V337.198ZM64.4179 329.871C64.4746 328.738 64.8712 327.865 65.6079 327.253C66.3559 326.63 67.3362 326.318 68.5489 326.318C69.3762 326.318 70.0846 326.465 70.6739 326.76C71.2632 327.043 71.7052 327.434 71.9999 327.933C72.3059 328.42 72.4589 328.976 72.4589 329.599C72.4589 330.313 72.2719 330.919 71.8979 331.418C71.5352 331.905 71.0989 332.234 70.5889 332.404V332.472C71.2462 332.676 71.7562 333.039 72.1189 333.56C72.4929 334.081 72.6799 334.75 72.6799 335.566C72.6799 336.246 72.5212 336.852 72.2039 337.385C71.8979 337.918 71.4389 338.337 70.8269 338.643C70.2262 338.938 69.5009 339.085 68.6509 339.085C67.3702 339.085 66.3276 338.762 65.5229 338.116C64.7182 337.47 64.2932 336.518 64.2479 335.26H66.5599C66.5826 335.815 66.7696 336.263 67.1209 336.603C67.4836 336.932 67.9766 337.096 68.5999 337.096C69.1779 337.096 69.6199 336.937 69.9259 336.62C70.2432 336.291 70.4019 335.872 70.4019 335.362C70.4019 334.682 70.1866 334.195 69.7559 333.9C69.3252 333.605 68.6566 333.458 67.7499 333.458H67.2569V331.503H67.7499C69.3592 331.503 70.1639 330.965 70.1639 329.888C70.1639 329.401 70.0166 329.021 69.7219 328.749C69.4386 328.477 69.0249 328.341 68.4809 328.341C67.9482 328.341 67.5346 328.488 67.2399 328.783C66.9566 329.066 66.7922 329.429 66.7469 329.871H64.4179ZM74.5607 332.642C74.5607 330.681 74.912 329.146 75.6147 328.035C76.3287 326.924 77.5073 326.369 79.1507 326.369C80.794 326.369 81.967 326.924 82.6697 328.035C83.3837 329.146 83.7407 330.681 83.7407 332.642C83.7407 334.614 83.3837 336.161 82.6697 337.283C81.967 338.405 80.794 338.966 79.1507 338.966C77.5073 338.966 76.3287 338.405 75.6147 337.283C74.912 336.161 74.5607 334.614 74.5607 332.642ZM81.3947 332.642C81.3947 331.803 81.338 331.101 81.2247 330.534C81.1227 329.956 80.9073 329.486 80.5787 329.123C80.2613 328.76 79.7853 328.579 79.1507 328.579C78.516 328.579 78.0343 328.76 77.7057 329.123C77.3883 329.486 77.173 329.956 77.0597 330.534C76.9577 331.101 76.9067 331.803 76.9067 332.642C76.9067 333.503 76.9577 334.229 77.0597 334.818C77.1617 335.396 77.377 335.866 77.7057 336.229C78.0343 336.58 78.516 336.756 79.1507 336.756C79.7853 336.756 80.267 336.58 80.5957 336.229C80.9243 335.866 81.1397 335.396 81.2417 334.818C81.3437 334.229 81.3947 333.503 81.3947 332.642ZM85.5509 332.642C85.5509 330.681 85.9022 329.146 86.6049 328.035C87.3189 326.924 88.4976 326.369 90.1409 326.369C91.7842 326.369 92.9572 326.924 93.6599 328.035C94.3739 329.146 94.7309 330.681 94.7309 332.642C94.7309 334.614 94.3739 336.161 93.6599 337.283C92.9572 338.405 91.7842 338.966 90.1409 338.966C88.4976 338.966 87.3189 338.405 86.6049 337.283C85.9022 336.161 85.5509 334.614 85.5509 332.642ZM92.3849 332.642C92.3849 331.803 92.3282 331.101 92.2149 330.534C92.1129 329.956 91.8976 329.486 91.5689 329.123C91.2516 328.76 90.7756 328.579 90.1409 328.579C89.5062 328.579 89.0246 328.76 88.6959 329.123C88.3786 329.486 88.1632 329.956 88.0499 330.534C87.9479 331.101 87.8969 331.803 87.8969 332.642C87.8969 333.503 87.9479 334.229 88.0499 334.818C88.1519 335.396 88.3672 335.866 88.6959 336.229C89.0246 336.58 89.5062 336.756 90.1409 336.756C90.7756 336.756 91.2572 336.58 91.5859 336.229C91.9146 335.866 92.1299 335.396 92.2319 334.818C92.3339 334.229 92.3849 333.503 92.3849 332.642Z" fill="white" fill-opacity="0.7"/>
<path d="M61.7064 393.583C61.7064 394.172 61.5534 394.728 61.2474 395.249C60.9527 395.759 60.5107 396.184 59.9214 396.524C59.3434 396.853 58.6577 397.045 57.8644 397.102V398.479H56.7764V397.085C55.643 396.983 54.7307 396.643 54.0394 396.065C53.348 395.476 52.991 394.682 52.9684 393.685H55.5184C55.5864 394.501 56.0057 394.994 56.7764 395.164V391.917C55.9604 391.713 55.303 391.509 54.8044 391.305C54.3057 391.101 53.875 390.772 53.5124 390.319C53.1497 389.866 52.9684 389.248 52.9684 388.466C52.9684 387.48 53.3197 386.675 54.0224 386.052C54.7364 385.429 55.6544 385.072 56.7764 384.981V383.604H57.8644V384.981C58.9524 385.072 59.8194 385.4 60.4654 385.967C61.1227 386.534 61.4911 387.316 61.5704 388.313H59.0034C58.9694 387.984 58.8504 387.701 58.6464 387.463C58.4537 387.214 58.193 387.038 57.8644 386.936V390.149C58.7144 390.364 59.383 390.574 59.8704 390.778C60.369 390.971 60.7997 391.294 61.1624 391.747C61.525 392.189 61.7064 392.801 61.7064 393.583ZM55.4504 388.347C55.4504 388.721 55.5637 389.027 55.7904 389.265C56.017 389.492 56.3457 389.679 56.7764 389.826V386.885C56.3684 386.942 56.0454 387.095 55.8074 387.344C55.5694 387.593 55.4504 387.928 55.4504 388.347ZM57.8644 395.198C58.295 395.119 58.6294 394.943 58.8674 394.671C59.1167 394.399 59.2414 394.07 59.2414 393.685C59.2414 393.311 59.1224 393.011 58.8844 392.784C58.6464 392.557 58.3064 392.37 57.8644 392.223V395.198ZM64.8394 394.314C65.9274 393.407 66.7944 392.654 67.4404 392.053C68.0864 391.441 68.6248 390.806 69.0554 390.149C69.4861 389.492 69.7014 388.846 69.7014 388.211C69.7014 387.633 69.5654 387.18 69.2934 386.851C69.0214 386.522 68.6021 386.358 68.0354 386.358C67.4688 386.358 67.0324 386.551 66.7264 386.936C66.4204 387.31 66.2618 387.826 66.2504 388.483H63.9384C63.9838 387.123 64.3861 386.092 65.1454 385.389C65.9161 384.686 66.8908 384.335 68.0694 384.335C69.3614 384.335 70.3531 384.681 71.0444 385.372C71.7358 386.052 72.0814 386.953 72.0814 388.075C72.0814 388.959 71.8434 389.803 71.3674 390.608C70.8914 391.413 70.3474 392.115 69.7354 392.716C69.1234 393.305 68.3244 394.019 67.3384 394.858H72.3534V396.83H63.9554V395.062L64.8394 394.314ZM73.8531 390.642C73.8531 388.681 74.2045 387.146 74.9071 386.035C75.6211 384.924 76.7998 384.369 78.4431 384.369C80.0865 384.369 81.2595 384.924 81.9621 386.035C82.6761 387.146 83.0331 388.681 83.0331 390.642C83.0331 392.614 82.6761 394.161 81.9621 395.283C81.2595 396.405 80.0865 396.966 78.4431 396.966C76.7998 396.966 75.6211 396.405 74.9071 395.283C74.2045 394.161 73.8531 392.614 73.8531 390.642ZM80.6871 390.642C80.6871 389.803 80.6305 389.101 80.5171 388.534C80.4151 387.956 80.1998 387.486 79.8711 387.123C79.5538 386.76 79.0778 386.579 78.4431 386.579C77.8085 386.579 77.3268 386.76 76.9981 387.123C76.6808 387.486 76.4655 387.956 76.3521 388.534C76.2501 389.101 76.1991 389.803 76.1991 390.642C76.1991 391.503 76.2501 392.229 76.3521 392.818C76.4541 393.396 76.6695 393.866 76.9981 394.229C77.3268 394.58 77.8085 394.756 78.4431 394.756C79.0778 394.756 79.5595 394.58 79.8881 394.229C80.2168 393.866 80.4321 393.396 80.5341 392.818C80.6361 392.229 80.6871 391.503 80.6871 390.642ZM84.8434 390.642C84.8434 388.681 85.1947 387.146 85.8974 386.035C86.6114 384.924 87.79 384.369 89.4334 384.369C91.0767 384.369 92.2497 384.924 92.9524 386.035C93.6664 387.146 94.0234 388.681 94.0234 390.642C94.0234 392.614 93.6664 394.161 92.9524 395.283C92.2497 396.405 91.0767 396.966 89.4334 396.966C87.79 396.966 86.6114 396.405 85.8974 395.283C85.1947 394.161 84.8434 392.614 84.8434 390.642ZM91.6774 390.642C91.6774 389.803 91.6207 389.101 91.5074 388.534C91.4054 387.956 91.19 387.486 90.8614 387.123C90.544 386.76 90.068 386.579 89.4334 386.579C88.7987 386.579 88.317 386.76 87.9884 387.123C87.671 387.486 87.4557 387.956 87.3424 388.534C87.2404 389.101 87.1894 389.803 87.1894 390.642C87.1894 391.503 87.2404 392.229 87.3424 392.818C87.4444 393.396 87.6597 393.866 87.9884 394.229C88.317 394.58 88.7987 394.756 89.4334 394.756C90.068 394.756 90.5497 394.58 90.8784 394.229C91.207 393.866 91.4224 393.396 91.5244 392.818C91.6264 392.229 91.6774 391.503 91.6774 390.642Z" fill="white" fill-opacity="0.7"/>
<path d="M62.0077 451.583C62.0077 452.172 61.8547 452.728 61.5487 453.249C61.254 453.759 60.812 454.184 60.2227 454.524C59.6447 454.853 58.959 455.045 58.1657 455.102V456.479H57.0777V455.085C55.9443 454.983 55.032 454.643 54.3407 454.065C53.6493 453.476 53.2923 452.682 53.2697 451.685H55.8197C55.8877 452.501 56.307 452.994 57.0777 453.164V449.917C56.2617 449.713 55.6043 449.509 55.1057 449.305C54.607 449.101 54.1763 448.772 53.8137 448.319C53.451 447.866 53.2697 447.248 53.2697 446.466C53.2697 445.48 53.621 444.675 54.3237 444.052C55.0377 443.429 55.9557 443.072 57.0777 442.981V441.604H58.1657V442.981C59.2537 443.072 60.1207 443.4 60.7667 443.967C61.424 444.534 61.7923 445.316 61.8717 446.313H59.3047C59.2707 445.984 59.1517 445.701 58.9477 445.463C58.755 445.214 58.4943 445.038 58.1657 444.936V448.149C59.0157 448.364 59.6843 448.574 60.1717 448.778C60.6703 448.971 61.101 449.294 61.4637 449.747C61.8263 450.189 62.0077 450.801 62.0077 451.583ZM55.7517 446.347C55.7517 446.721 55.865 447.027 56.0917 447.265C56.3183 447.492 56.647 447.679 57.0777 447.826V444.885C56.6697 444.942 56.3467 445.095 56.1087 445.344C55.8707 445.593 55.7517 445.928 55.7517 446.347ZM58.1657 453.198C58.5963 453.119 58.9307 452.943 59.1687 452.671C59.418 452.399 59.5427 452.07 59.5427 451.685C59.5427 451.311 59.4237 451.011 59.1857 450.784C58.9477 450.557 58.6077 450.37 58.1657 450.223V453.198ZM64.1037 444.8V442.607H68.2007V455H65.7527V444.8H64.1037ZM70.5519 448.642C70.5519 446.681 70.9032 445.146 71.6059 444.035C72.3199 442.924 73.4985 442.369 75.1419 442.369C76.7852 442.369 77.9582 442.924 78.6609 444.035C79.3749 445.146 79.7319 446.681 79.7319 448.642C79.7319 450.614 79.3749 452.161 78.6609 453.283C77.9582 454.405 76.7852 454.966 75.1419 454.966C73.4985 454.966 72.3199 454.405 71.6059 453.283C70.9032 452.161 70.5519 450.614 70.5519 448.642ZM77.3859 448.642C77.3859 447.803 77.3292 447.101 77.2159 446.534C77.1139 445.956 76.8985 445.486 76.5699 445.123C76.2525 444.76 75.7765 444.579 75.1419 444.579C74.5072 444.579 74.0255 444.76 73.6969 445.123C73.3795 445.486 73.1642 445.956 73.0509 446.534C72.9489 447.101 72.8979 447.803 72.8979 448.642C72.8979 449.503 72.9489 450.229 73.0509 450.818C73.1529 451.396 73.3682 451.866 73.6969 452.229C74.0255 452.58 74.5072 452.756 75.1419 452.756C75.7765 452.756 76.2582 452.58 76.5869 452.229C76.9155 451.866 77.1309 451.396 77.2329 450.818C77.3349 450.229 77.3859 449.503 77.3859 448.642ZM81.5421 448.642C81.5421 446.681 81.8934 445.146 82.5961 444.035C83.3101 442.924 84.4888 442.369 86.1321 442.369C87.7754 442.369 88.9484 442.924 89.6511 444.035C90.3651 445.146 90.7221 446.681 90.7221 448.642C90.7221 450.614 90.3651 452.161 89.6511 453.283C88.9484 454.405 87.7754 454.966 86.1321 454.966C84.4888 454.966 83.3101 454.405 82.5961 453.283C81.8934 452.161 81.5421 450.614 81.5421 448.642ZM88.3761 448.642C88.3761 447.803 88.3194 447.101 88.2061 446.534C88.1041 445.956 87.8888 445.486 87.5601 445.123C87.2428 444.76 86.7668 444.579 86.1321 444.579C85.4974 444.579 85.0158 444.76 84.6871 445.123C84.3698 445.486 84.1544 445.956 84.0411 446.534C83.9391 447.101 83.8881 447.803 83.8881 448.642C83.8881 449.503 83.9391 450.229 84.0411 450.818C84.1431 451.396 84.3584 451.866 84.6871 452.229C85.0158 452.58 85.4974 452.756 86.1321 452.756C86.7668 452.756 87.2484 452.58 87.5771 452.229C87.9058 451.866 88.1211 451.396 88.2231 450.818C88.3251 450.229 88.3761 449.503 88.3761 448.642Z" fill="white" fill-opacity="0.7"/>
<path d="M124.502 476.664H118.994V479.571C119.232 479.276 119.572 479.038 120.014 478.857C120.456 478.664 120.926 478.568 121.425 478.568C122.331 478.568 123.074 478.766 123.652 479.163C124.23 479.56 124.649 480.07 124.91 480.693C125.17 481.305 125.301 481.962 125.301 482.665C125.301 483.968 124.927 485.017 124.179 485.81C123.442 486.603 122.388 487 121.017 487C119.725 487 118.693 486.677 117.923 486.031C117.152 485.385 116.716 484.541 116.614 483.498H118.926C119.028 483.951 119.254 484.314 119.606 484.586C119.968 484.858 120.427 484.994 120.983 484.994C121.651 484.994 122.156 484.784 122.496 484.365C122.836 483.946 123.006 483.39 123.006 482.699C123.006 481.996 122.83 481.464 122.479 481.101C122.139 480.727 121.634 480.54 120.966 480.54C120.49 480.54 120.093 480.659 119.776 480.897C119.458 481.135 119.232 481.452 119.096 481.849H116.818V474.573H124.502V476.664ZM137.533 487H135.153L129.764 478.857V487H127.384V475.117H129.764L135.153 483.277V475.117H137.533V487ZM144.067 487.153C143.16 487.153 142.344 486.955 141.619 486.558C140.894 486.15 140.321 485.578 139.902 484.841C139.494 484.104 139.29 483.254 139.29 482.291C139.29 481.328 139.5 480.478 139.919 479.741C140.35 479.004 140.933 478.438 141.67 478.041C142.407 477.633 143.228 477.429 144.135 477.429C145.042 477.429 145.863 477.633 146.6 478.041C147.337 478.438 147.915 479.004 148.334 479.741C148.765 480.478 148.98 481.328 148.98 482.291C148.98 483.254 148.759 484.104 148.317 484.841C147.886 485.578 147.297 486.15 146.549 486.558C145.812 486.955 144.985 487.153 144.067 487.153ZM144.067 485.079C144.498 485.079 144.9 484.977 145.274 484.773C145.659 484.558 145.965 484.24 146.192 483.821C146.419 483.402 146.532 482.892 146.532 482.291C146.532 481.396 146.294 480.71 145.818 480.234C145.353 479.747 144.781 479.503 144.101 479.503C143.421 479.503 142.849 479.747 142.384 480.234C141.931 480.71 141.704 481.396 141.704 482.291C141.704 483.186 141.925 483.878 142.367 484.365C142.82 484.841 143.387 485.079 144.067 485.079ZM154.653 484.807L157.033 477.582H159.566L156.081 487H153.191L149.723 477.582H152.273L154.653 484.807Z" fill="white" fill-opacity="0.7"/>
<path d="M186.631 477.701C186.517 477.225 186.319 476.868 186.036 476.63C185.764 476.392 185.367 476.273 184.846 476.273C184.064 476.273 183.486 476.59 183.112 477.225C182.749 477.848 182.562 478.868 182.551 480.285C182.823 479.832 183.219 479.48 183.741 479.231C184.262 478.97 184.829 478.84 185.441 478.84C186.177 478.84 186.829 478.999 187.396 479.316C187.962 479.633 188.404 480.098 188.722 480.71C189.039 481.311 189.198 482.036 189.198 482.886C189.198 483.691 189.033 484.41 188.705 485.045C188.387 485.668 187.917 486.156 187.294 486.507C186.67 486.858 185.928 487.034 185.067 487.034C183.888 487.034 182.959 486.773 182.279 486.252C181.61 485.731 181.14 485.005 180.868 484.076C180.607 483.135 180.477 481.979 180.477 480.608C180.477 478.534 180.834 476.97 181.548 475.916C182.262 474.851 183.389 474.318 184.931 474.318C186.121 474.318 187.044 474.641 187.702 475.287C188.359 475.933 188.739 476.738 188.841 477.701H186.631ZM184.897 480.795C184.296 480.795 183.792 480.971 183.384 481.322C182.976 481.673 182.772 482.183 182.772 482.852C182.772 483.521 182.959 484.048 183.333 484.433C183.718 484.818 184.256 485.011 184.948 485.011C185.56 485.011 186.041 484.824 186.393 484.45C186.755 484.076 186.937 483.572 186.937 482.937C186.937 482.28 186.761 481.758 186.41 481.373C186.07 480.988 185.565 480.795 184.897 480.795ZM201.5 487H199.12L193.731 478.857V487H191.351V475.117H193.731L199.12 483.277V475.117H201.5V487ZM208.034 487.153C207.127 487.153 206.311 486.955 205.586 486.558C204.86 486.15 204.288 485.578 203.869 484.841C203.461 484.104 203.257 483.254 203.257 482.291C203.257 481.328 203.466 480.478 203.886 479.741C204.316 479.004 204.9 478.438 205.637 478.041C206.373 477.633 207.195 477.429 208.102 477.429C209.008 477.429 209.83 477.633 210.567 478.041C211.303 478.438 211.881 479.004 212.301 479.741C212.731 480.478 212.947 481.328 212.947 482.291C212.947 483.254 212.726 484.104 212.284 484.841C211.853 485.578 211.264 486.15 210.516 486.558C209.779 486.955 208.952 487.153 208.034 487.153ZM208.034 485.079C208.464 485.079 208.867 484.977 209.241 484.773C209.626 484.558 209.932 484.24 210.159 483.821C210.385 483.402 210.499 482.892 210.499 482.291C210.499 481.396 210.261 480.71 209.785 480.234C209.32 479.747 208.748 479.503 208.068 479.503C207.388 479.503 206.815 479.747 206.351 480.234C205.897 480.71 205.671 481.396 205.671 482.291C205.671 483.186 205.892 483.878 206.334 484.365C206.787 484.841 207.354 485.079 208.034 485.079ZM218.62 484.807L221 477.582H223.533L220.048 487H217.158L213.69 477.582H216.24L218.62 484.807Z" fill="white" fill-opacity="0.7"/>
<path d="M251.873 476.409L247.351 487H244.937L249.493 476.681H243.679V474.641H251.873V476.409ZM263.719 487H261.339L255.95 478.857V487H253.57V475.117H255.95L261.339 483.277V475.117H263.719V487ZM270.253 487.153C269.347 487.153 268.531 486.955 267.805 486.558C267.08 486.15 266.508 485.578 266.088 484.841C265.68 484.104 265.476 483.254 265.476 482.291C265.476 481.328 265.686 480.478 266.105 479.741C266.536 479.004 267.12 478.438 267.856 478.041C268.593 477.633 269.415 477.429 270.321 477.429C271.228 477.429 272.05 477.633 272.786 478.041C273.523 478.438 274.101 479.004 274.52 479.741C274.951 480.478 275.166 481.328 275.166 482.291C275.166 483.254 274.945 484.104 274.503 484.841C274.073 485.578 273.483 486.15 272.735 486.558C271.999 486.955 271.171 487.153 270.253 487.153ZM270.253 485.079C270.684 485.079 271.086 484.977 271.46 484.773C271.846 484.558 272.152 484.24 272.378 483.821C272.605 483.402 272.718 482.892 272.718 482.291C272.718 481.396 272.48 480.71 272.004 480.234C271.54 479.747 270.967 479.503 270.287 479.503C269.607 479.503 269.035 479.747 268.57 480.234C268.117 480.71 267.89 481.396 267.89 482.291C267.89 483.186 268.111 483.878 268.553 484.365C269.007 484.841 269.573 485.079 270.253 485.079ZM280.839 484.807L283.219 477.582H285.752L282.267 487H279.377L275.909 477.582H278.459L280.839 484.807Z" fill="white" fill-opacity="0.7"/>
<path d="M308.254 480.438C307.12 479.849 306.554 478.936 306.554 477.701C306.554 477.089 306.707 476.534 307.013 476.035C307.33 475.525 307.8 475.123 308.424 474.828C309.058 474.522 309.829 474.369 310.736 474.369C311.642 474.369 312.407 474.522 313.031 474.828C313.665 475.123 314.136 475.525 314.442 476.035C314.759 476.534 314.918 477.089 314.918 477.701C314.918 478.324 314.765 478.874 314.459 479.35C314.153 479.815 313.745 480.177 313.235 480.438C313.858 480.71 314.345 481.107 314.697 481.628C315.048 482.149 315.224 482.767 315.224 483.481C315.224 484.252 315.025 484.926 314.629 485.504C314.243 486.071 313.711 486.507 313.031 486.813C312.351 487.119 311.586 487.272 310.736 487.272C309.886 487.272 309.121 487.119 308.441 486.813C307.772 486.507 307.239 486.071 306.843 485.504C306.457 484.926 306.265 484.252 306.265 483.481C306.265 482.767 306.44 482.149 306.792 481.628C307.143 481.095 307.63 480.699 308.254 480.438ZM312.606 478.041C312.606 477.486 312.436 477.055 312.096 476.749C311.767 476.443 311.314 476.29 310.736 476.29C310.169 476.29 309.716 476.443 309.376 476.749C309.047 477.055 308.883 477.491 308.883 478.058C308.883 478.568 309.053 478.976 309.393 479.282C309.744 479.588 310.192 479.741 310.736 479.741C311.28 479.741 311.727 479.588 312.079 479.282C312.43 478.965 312.606 478.551 312.606 478.041ZM310.736 481.475C310.09 481.475 309.563 481.639 309.155 481.968C308.758 482.297 308.56 482.767 308.56 483.379C308.56 483.946 308.752 484.41 309.138 484.773C309.534 485.124 310.067 485.3 310.736 485.3C311.404 485.3 311.931 485.119 312.317 484.756C312.702 484.393 312.895 483.934 312.895 483.379C312.895 482.778 312.696 482.314 312.3 481.985C311.903 481.645 311.382 481.475 310.736 481.475ZM327.525 487H325.145L319.756 478.857V487H317.376V475.117H319.756L325.145 483.277V475.117H327.525V487ZM334.059 487.153C333.152 487.153 332.336 486.955 331.611 486.558C330.885 486.15 330.313 485.578 329.894 484.841C329.486 484.104 329.282 483.254 329.282 482.291C329.282 481.328 329.491 480.478 329.911 479.741C330.341 479.004 330.925 478.438 331.662 478.041C332.398 477.633 333.22 477.429 334.127 477.429C335.033 477.429 335.855 477.633 336.592 478.041C337.328 478.438 337.906 479.004 338.326 479.741C338.756 480.478 338.972 481.328 338.972 482.291C338.972 483.254 338.751 484.104 338.309 484.841C337.878 485.578 337.289 486.15 336.541 486.558C335.804 486.955 334.977 487.153 334.059 487.153ZM334.059 485.079C334.489 485.079 334.892 484.977 335.266 484.773C335.651 484.558 335.957 484.24 336.184 483.821C336.41 483.402 336.524 482.892 336.524 482.291C336.524 481.396 336.286 480.71 335.81 480.234C335.345 479.747 334.773 479.503 334.093 479.503C333.413 479.503 332.84 479.747 332.376 480.234C331.922 480.71 331.696 481.396 331.696 482.291C331.696 483.186 331.917 483.878 332.359 484.365C332.812 484.841 333.379 485.079 334.059 485.079ZM344.644 484.807L347.024 477.582H349.557L346.072 487H343.182L339.714 477.582H342.264L344.644 484.807Z" fill="white" fill-opacity="0.7"/>
<path d="M373.075 483.515C373.166 484.014 373.37 484.399 373.687 484.671C374.016 484.932 374.452 485.062 374.996 485.062C375.699 485.062 376.209 484.773 376.526 484.195C376.843 483.606 377.002 482.62 377.002 481.237C376.741 481.6 376.373 481.883 375.897 482.087C375.432 482.291 374.928 482.393 374.384 482.393C373.659 482.393 373.001 482.246 372.412 481.951C371.834 481.645 371.375 481.197 371.035 480.608C370.695 480.007 370.525 479.282 370.525 478.432C370.525 477.174 370.899 476.177 371.647 475.44C372.395 474.692 373.415 474.318 374.707 474.318C376.316 474.318 377.45 474.834 378.107 475.865C378.776 476.896 379.11 478.449 379.11 480.523C379.11 481.996 378.98 483.203 378.719 484.144C378.47 485.085 378.033 485.799 377.41 486.286C376.798 486.773 375.959 487.017 374.894 487.017C374.055 487.017 373.341 486.858 372.752 486.541C372.163 486.212 371.709 485.787 371.392 485.266C371.086 484.733 370.91 484.15 370.865 483.515H373.075ZM374.877 480.455C375.466 480.455 375.931 480.274 376.271 479.911C376.611 479.548 376.781 479.061 376.781 478.449C376.781 477.78 376.6 477.265 376.237 476.902C375.886 476.528 375.404 476.341 374.792 476.341C374.18 476.341 373.693 476.534 373.33 476.919C372.979 477.293 372.803 477.792 372.803 478.415C372.803 479.016 372.973 479.509 373.313 479.894C373.664 480.268 374.186 480.455 374.877 480.455ZM391.384 487H389.004L383.615 478.857V487H381.235V475.117H383.615L389.004 483.277V475.117H391.384V487ZM397.918 487.153C397.011 487.153 396.195 486.955 395.47 486.558C394.744 486.15 394.172 485.578 393.753 484.841C393.345 484.104 393.141 483.254 393.141 482.291C393.141 481.328 393.35 480.478 393.77 479.741C394.2 479.004 394.784 478.438 395.521 478.041C396.257 477.633 397.079 477.429 397.986 477.429C398.892 477.429 399.714 477.633 400.451 478.041C401.187 478.438 401.765 479.004 402.185 479.741C402.615 480.478 402.831 481.328 402.831 482.291C402.831 483.254 402.61 484.104 402.167 484.841C401.737 485.578 401.148 486.15 400.4 486.558C399.663 486.955 398.836 487.153 397.918 487.153ZM397.918 485.079C398.348 485.079 398.751 484.977 399.125 484.773C399.51 484.558 399.816 484.24 400.043 483.821C400.269 483.402 400.383 482.892 400.383 482.291C400.383 481.396 400.145 480.71 399.669 480.234C399.204 479.747 398.632 479.503 397.952 479.503C397.272 479.503 396.699 479.747 396.235 480.234C395.781 480.71 395.555 481.396 395.555 482.291C395.555 483.186 395.776 483.878 396.218 484.365C396.671 484.841 397.238 485.079 397.918 485.079ZM408.503 484.807L410.883 477.582H413.416L409.931 487H407.041L403.573 477.582H406.123L408.503 484.807Z" fill="white" fill-opacity="0.7"/>
<path d="M433.778 476.8V474.607H437.875V487H435.427V476.8H433.778ZM440.226 480.642C440.226 478.681 440.578 477.146 441.28 476.035C441.994 474.924 443.173 474.369 444.816 474.369C446.46 474.369 447.633 474.924 448.335 476.035C449.049 477.146 449.406 478.681 449.406 480.642C449.406 482.614 449.049 484.161 448.335 485.283C447.633 486.405 446.46 486.966 444.816 486.966C443.173 486.966 441.994 486.405 441.28 485.283C440.578 484.161 440.226 482.614 440.226 480.642ZM447.06 480.642C447.06 479.803 447.004 479.101 446.89 478.534C446.788 477.956 446.573 477.486 446.244 477.123C445.927 476.76 445.451 476.579 444.816 476.579C444.182 476.579 443.7 476.76 443.371 477.123C443.054 477.486 442.839 477.956 442.725 478.534C442.623 479.101 442.572 479.803 442.572 480.642C442.572 481.503 442.623 482.229 442.725 482.818C442.827 483.396 443.043 483.866 443.371 484.229C443.7 484.58 444.182 484.756 444.816 484.756C445.451 484.756 445.933 484.58 446.261 484.229C446.59 483.866 446.805 483.396 446.907 482.818C447.009 482.229 447.06 481.503 447.06 480.642ZM461.637 487H459.257L453.868 478.857V487H451.488V475.117H453.868L459.257 483.277V475.117H461.637V487ZM468.171 487.153C467.265 487.153 466.449 486.955 465.723 486.558C464.998 486.15 464.426 485.578 464.006 484.841C463.598 484.104 463.394 483.254 463.394 482.291C463.394 481.328 463.604 480.478 464.023 479.741C464.454 479.004 465.038 478.438 465.774 478.041C466.511 477.633 467.333 477.429 468.239 477.429C469.146 477.429 469.968 477.633 470.704 478.041C471.441 478.438 472.019 479.004 472.438 479.741C472.869 480.478 473.084 481.328 473.084 482.291C473.084 483.254 472.863 484.104 472.421 484.841C471.991 485.578 471.401 486.15 470.653 486.558C469.917 486.955 469.089 487.153 468.171 487.153ZM468.171 485.079C468.602 485.079 469.004 484.977 469.378 484.773C469.764 484.558 470.07 484.24 470.296 483.821C470.523 483.402 470.636 482.892 470.636 482.291C470.636 481.396 470.398 480.71 469.922 480.234C469.458 479.747 468.885 479.503 468.205 479.503C467.525 479.503 466.953 479.747 466.488 480.234C466.035 480.71 465.808 481.396 465.808 482.291C465.808 483.186 466.029 483.878 466.471 484.365C466.925 484.841 467.491 485.079 468.171 485.079ZM478.757 484.807L481.137 477.582H483.67L480.185 487H477.295L473.827 477.582H476.377L478.757 484.807Z" fill="white" fill-opacity="0.7"/>
<path d="M503.694 476.8V474.607H507.791V487H505.343V476.8H503.694ZM509.853 476.8V474.607H513.95V487H511.502V476.8H509.853ZM526.722 487H524.342L518.953 478.857V487H516.573V475.117H518.953L524.342 483.277V475.117H526.722V487ZM533.256 487.153C532.349 487.153 531.533 486.955 530.808 486.558C530.083 486.15 529.51 485.578 529.091 484.841C528.683 484.104 528.479 483.254 528.479 482.291C528.479 481.328 528.689 480.478 529.108 479.741C529.539 479.004 530.122 478.438 530.859 478.041C531.596 477.633 532.417 477.429 533.324 477.429C534.231 477.429 535.052 477.633 535.789 478.041C536.526 478.438 537.104 479.004 537.523 479.741C537.954 480.478 538.169 481.328 538.169 482.291C538.169 483.254 537.948 484.104 537.506 484.841C537.075 485.578 536.486 486.15 535.738 486.558C535.001 486.955 534.174 487.153 533.256 487.153ZM533.256 485.079C533.687 485.079 534.089 484.977 534.463 484.773C534.848 484.558 535.154 484.24 535.381 483.821C535.608 483.402 535.721 482.892 535.721 482.291C535.721 481.396 535.483 480.71 535.007 480.234C534.542 479.747 533.97 479.503 533.29 479.503C532.61 479.503 532.038 479.747 531.573 480.234C531.12 480.71 530.893 481.396 530.893 482.291C530.893 483.186 531.114 483.878 531.556 484.365C532.009 484.841 532.576 485.079 533.256 485.079ZM543.842 484.807L546.222 477.582H548.755L545.27 487H542.38L538.912 477.582H541.462L543.842 484.807Z" fill="white" fill-opacity="0.7"/>
<path d="M568.892 476.8V474.607H572.989V487H570.541V476.8H568.892ZM576.088 484.314C577.176 483.407 578.043 482.654 578.689 482.053C579.335 481.441 579.874 480.806 580.304 480.149C580.735 479.492 580.95 478.846 580.95 478.211C580.95 477.633 580.814 477.18 580.542 476.851C580.27 476.522 579.851 476.358 579.284 476.358C578.718 476.358 578.281 476.551 577.975 476.936C577.669 477.31 577.511 477.826 577.499 478.483H575.187C575.233 477.123 575.635 476.092 576.394 475.389C577.165 474.686 578.14 474.335 579.318 474.335C580.61 474.335 581.602 474.681 582.293 475.372C582.985 476.052 583.33 476.953 583.33 478.075C583.33 478.959 583.092 479.803 582.616 480.608C582.14 481.413 581.596 482.115 580.984 482.716C580.372 483.305 579.573 484.019 578.587 484.858H583.602V486.83H575.204V485.062L576.088 484.314ZM595.523 487H593.143L587.754 478.857V487H585.374V475.117H587.754L593.143 483.277V475.117H595.523V487ZM602.057 487.153C601.15 487.153 600.334 486.955 599.609 486.558C598.884 486.15 598.311 485.578 597.892 484.841C597.484 484.104 597.28 483.254 597.28 482.291C597.28 481.328 597.49 480.478 597.909 479.741C598.34 479.004 598.923 478.438 599.66 478.041C600.397 477.633 601.218 477.429 602.125 477.429C603.032 477.429 603.853 477.633 604.59 478.041C605.327 478.438 605.905 479.004 606.324 479.741C606.755 480.478 606.97 481.328 606.97 482.291C606.97 483.254 606.749 484.104 606.307 484.841C605.876 485.578 605.287 486.15 604.539 486.558C603.802 486.955 602.975 487.153 602.057 487.153ZM602.057 485.079C602.488 485.079 602.89 484.977 603.264 484.773C603.649 484.558 603.955 484.24 604.182 483.821C604.409 483.402 604.522 482.892 604.522 482.291C604.522 481.396 604.284 480.71 603.808 480.234C603.343 479.747 602.771 479.503 602.091 479.503C601.411 479.503 600.839 479.747 600.374 480.234C599.921 480.71 599.694 481.396 599.694 482.291C599.694 483.186 599.915 483.878 600.357 484.365C600.81 484.841 601.377 485.079 602.057 485.079ZM612.643 484.807L615.023 477.582H617.556L614.071 487H611.181L607.713 477.582H610.263L612.643 484.807Z" fill="white" fill-opacity="0.7"/>
<path d="M637.685 476.8V474.607H641.782V487H639.334V476.8H637.685ZM644.167 477.871C644.224 476.738 644.62 475.865 645.357 475.253C646.105 474.63 647.085 474.318 648.298 474.318C649.125 474.318 649.834 474.465 650.423 474.76C651.012 475.043 651.454 475.434 651.749 475.933C652.055 476.42 652.208 476.976 652.208 477.599C652.208 478.313 652.021 478.919 651.647 479.418C651.284 479.905 650.848 480.234 650.338 480.404V480.472C650.995 480.676 651.505 481.039 651.868 481.56C652.242 482.081 652.429 482.75 652.429 483.566C652.429 484.246 652.27 484.852 651.953 485.385C651.647 485.918 651.188 486.337 650.576 486.643C649.975 486.938 649.25 487.085 648.4 487.085C647.119 487.085 646.077 486.762 645.272 486.116C644.467 485.47 644.042 484.518 643.997 483.26H646.309C646.332 483.815 646.519 484.263 646.87 484.603C647.233 484.932 647.726 485.096 648.349 485.096C648.927 485.096 649.369 484.937 649.675 484.62C649.992 484.291 650.151 483.872 650.151 483.362C650.151 482.682 649.936 482.195 649.505 481.9C649.074 481.605 648.406 481.458 647.499 481.458H647.006V479.503H647.499C649.108 479.503 649.913 478.965 649.913 477.888C649.913 477.401 649.766 477.021 649.471 476.749C649.188 476.477 648.774 476.341 648.23 476.341C647.697 476.341 647.284 476.488 646.989 476.783C646.706 477.066 646.541 477.429 646.496 477.871H644.167ZM664.731 487H662.351L656.962 478.857V487H654.582V475.117H656.962L662.351 483.277V475.117H664.731V487ZM671.265 487.153C670.358 487.153 669.542 486.955 668.817 486.558C668.091 486.15 667.519 485.578 667.1 484.841C666.692 484.104 666.488 483.254 666.488 482.291C666.488 481.328 666.697 480.478 667.117 479.741C667.547 479.004 668.131 478.438 668.868 478.041C669.604 477.633 670.426 477.429 671.333 477.429C672.239 477.429 673.061 477.633 673.798 478.041C674.534 478.438 675.112 479.004 675.532 479.741C675.962 480.478 676.178 481.328 676.178 482.291C676.178 483.254 675.957 484.104 675.515 484.841C675.084 485.578 674.495 486.15 673.747 486.558C673.01 486.955 672.183 487.153 671.265 487.153ZM671.265 485.079C671.695 485.079 672.098 484.977 672.472 484.773C672.857 484.558 673.163 484.24 673.39 483.821C673.616 483.402 673.73 482.892 673.73 482.291C673.73 481.396 673.492 480.71 673.016 480.234C672.551 479.747 671.979 479.503 671.299 479.503C670.619 479.503 670.046 479.747 669.582 480.234C669.128 480.71 668.902 481.396 668.902 482.291C668.902 483.186 669.123 483.878 669.565 484.365C670.018 484.841 670.585 485.079 671.265 485.079ZM681.85 484.807L684.23 477.582H686.763L683.278 487H680.388L676.92 477.582H679.47L681.85 484.807Z" fill="white" fill-opacity="0.7"/>
<path d="M706.654 476.8V474.607H710.751V487H708.303V476.8H706.654ZM713 484.586V482.716L718.559 474.76H721.33V482.512H722.826V484.586H721.33V487H718.95V484.586H713ZM719.103 477.31L715.618 482.512H719.103V477.31ZM734.762 487H732.382L726.993 478.857V487H724.613V475.117H726.993L732.382 483.277V475.117H734.762V487ZM741.296 487.153C740.389 487.153 739.573 486.955 738.848 486.558C738.123 486.15 737.55 485.578 737.131 484.841C736.723 484.104 736.519 483.254 736.519 482.291C736.519 481.328 736.729 480.478 737.148 479.741C737.579 479.004 738.162 478.438 738.899 478.041C739.636 477.633 740.457 477.429 741.364 477.429C742.271 477.429 743.092 477.633 743.829 478.041C744.566 478.438 745.144 479.004 745.563 479.741C745.994 480.478 746.209 481.328 746.209 482.291C746.209 483.254 745.988 484.104 745.546 484.841C745.115 485.578 744.526 486.15 743.778 486.558C743.041 486.955 742.214 487.153 741.296 487.153ZM741.296 485.079C741.727 485.079 742.129 484.977 742.503 484.773C742.888 484.558 743.194 484.24 743.421 483.821C743.648 483.402 743.761 482.892 743.761 482.291C743.761 481.396 743.523 480.71 743.047 480.234C742.582 479.747 742.01 479.503 741.33 479.503C740.65 479.503 740.078 479.747 739.613 480.234C739.16 480.71 738.933 481.396 738.933 482.291C738.933 483.186 739.154 483.878 739.596 484.365C740.049 484.841 740.616 485.079 741.296 485.079ZM751.882 484.807L754.262 477.582H756.795L753.31 487H750.42L746.952 477.582H749.502L751.882 484.807Z" fill="white" fill-opacity="0.7"/>
<path d="M776.654 476.8V474.607H780.751V487H778.303V476.8H776.654ZM783 484.586V482.716L788.559 474.76H791.33V482.512H792.826V484.586H791.33V487H788.95V484.586H783ZM789.103 477.31L785.618 482.512H789.103V477.31ZM804.762 487H802.382L796.993 478.857V487H794.613V475.117H796.993L802.382 483.277V475.117H804.762V487ZM811.296 487.153C810.389 487.153 809.573 486.955 808.848 486.558C808.123 486.15 807.55 485.578 807.131 484.841C806.723 484.104 806.519 483.254 806.519 482.291C806.519 481.328 806.729 480.478 807.148 479.741C807.579 479.004 808.162 478.438 808.899 478.041C809.636 477.633 810.457 477.429 811.364 477.429C812.271 477.429 813.092 477.633 813.829 478.041C814.566 478.438 815.144 479.004 815.563 479.741C815.994 480.478 816.209 481.328 816.209 482.291C816.209 483.254 815.988 484.104 815.546 484.841C815.115 485.578 814.526 486.15 813.778 486.558C813.041 486.955 812.214 487.153 811.296 487.153ZM811.296 485.079C811.727 485.079 812.129 484.977 812.503 484.773C812.888 484.558 813.194 484.24 813.421 483.821C813.648 483.402 813.761 482.892 813.761 482.291C813.761 481.396 813.523 480.71 813.047 480.234C812.582 479.747 812.01 479.503 811.33 479.503C810.65 479.503 810.078 479.747 809.613 480.234C809.16 480.71 808.933 481.396 808.933 482.291C808.933 483.186 809.154 483.878 809.596 484.365C810.049 484.841 810.616 485.079 811.296 485.079ZM821.882 484.807L824.262 477.582H826.795L823.31 487H820.42L816.952 477.582H819.502L821.882 484.807Z" fill="white" fill-opacity="0.7"/>
<path d="M846.803 476.8V474.607H850.9V487H848.452V476.8H846.803ZM861.581 476.664H856.073V479.571C856.311 479.276 856.651 479.038 857.093 478.857C857.535 478.664 858.005 478.568 858.504 478.568C859.411 478.568 860.153 478.766 860.731 479.163C861.309 479.56 861.728 480.07 861.989 480.693C862.25 481.305 862.38 481.962 862.38 482.665C862.38 483.968 862.006 485.017 861.258 485.81C860.521 486.603 859.467 487 858.096 487C856.804 487 855.773 486.677 855.002 486.031C854.231 485.385 853.795 484.541 853.693 483.498H856.005C856.107 483.951 856.334 484.314 856.685 484.586C857.048 484.858 857.507 484.994 858.062 484.994C858.731 484.994 859.235 484.784 859.575 484.365C859.915 483.946 860.085 483.39 860.085 482.699C860.085 481.996 859.909 481.464 859.558 481.101C859.218 480.727 858.714 480.54 858.045 480.54C857.569 480.54 857.172 480.659 856.855 480.897C856.538 481.135 856.311 481.452 856.175 481.849H853.897V474.573H861.581V476.664ZM874.613 487H872.233L866.844 478.857V487H864.464V475.117H866.844L872.233 483.277V475.117H874.613V487ZM881.147 487.153C880.24 487.153 879.424 486.955 878.699 486.558C877.973 486.15 877.401 485.578 876.982 484.841C876.574 484.104 876.37 483.254 876.37 482.291C876.37 481.328 876.579 480.478 876.999 479.741C877.429 479.004 878.013 478.438 878.75 478.041C879.486 477.633 880.308 477.429 881.215 477.429C882.121 477.429 882.943 477.633 883.68 478.041C884.416 478.438 884.994 479.004 885.414 479.741C885.844 480.478 886.06 481.328 886.06 482.291C886.06 483.254 885.839 484.104 885.397 484.841C884.966 485.578 884.377 486.15 883.629 486.558C882.892 486.955 882.065 487.153 881.147 487.153ZM881.147 485.079C881.577 485.079 881.98 484.977 882.354 484.773C882.739 484.558 883.045 484.24 883.272 483.821C883.498 483.402 883.612 482.892 883.612 482.291C883.612 481.396 883.374 480.71 882.898 480.234C882.433 479.747 881.861 479.503 881.181 479.503C880.501 479.503 879.928 479.747 879.464 480.234C879.01 480.71 878.784 481.396 878.784 482.291C878.784 483.186 879.005 483.878 879.447 484.365C879.9 484.841 880.467 485.079 881.147 485.079ZM891.732 484.807L894.112 477.582H896.645L893.16 487H890.27L886.802 477.582H889.352L891.732 484.807Z" fill="white" fill-opacity="0.7"/>
<g style="mix-blend-mode:hard-light" filter="url(#filter0_d_6_113)">
<path d="M173 378.205C173 378.205 241.588 259.223 276.294 193.964C311 128.705 359.019 58.3318 415.869 160.705C472.718 263.079 498.615 305.346 504.457 302.284C518.691 241.362 558.184 132.316 602.287 183.503C646.39 234.69 689.707 204.831 705.852 183.503L735.169 128.705C759.281 150.561 803.236 206.816 786.155 256.989" stroke="url(#paint0_linear_6_113)" stroke-width="7" stroke-linecap="round"/>
</g>
<g style="mix-blend-mode:hard-light" filter="url(#filter1_d_6_113)">
<path d="M369 428L413.294 325.056C436.132 271.315 496.019 189.424 552.869 291.798C609.718 394.171 635.615 413.641 641.457 410.579C655.691 349.657 695.184 240.611 739.287 291.798C783.39 342.984 826.707 313.125 842.852 291.798L872.169 237C896.281 258.856 940.236 315.11 923.155 365.284" stroke="url(#paint1_linear_6_113)" stroke-width="7" stroke-linecap="round"/>
</g>
<path d="M106 422.663C150.697 364.55 204.5 184.5 218 167.5C233.143 148.431 264.026 382.938 324.584 363.178C385.141 343.418 390.332 487.499 420.323 415.87L443.104 297.519C453.677 329.148 485.667 389.483 529.038 377.792C572.408 366.101 579 335 591 297.519C598.21 275 594 289 605 257.5L637 99C657.5 154 662.5 159.5 711.5 228L818.5 411C837.167 349.833 882.5 233.5 914.5 257.5L946.5 292" stroke="url(#paint2_linear_6_113)" stroke-width="7" stroke-linecap="round"/>
<g filter="url(#filter2_f_6_113)">
<circle cx="503" cy="299" r="11" fill="url(#paint3_linear_6_113)"/>
</g>
<g filter="url(#filter3_f_6_113)">
<circle cx="503" cy="299" r="11" fill="url(#paint4_linear_6_113)"/>
<circle cx="503" cy="299" r="10" stroke="#00FFFF" stroke-width="2"/>
</g>
<rect x="462" y="139" width="82" height="32" rx="16" fill="black"/>
<path d="M498.485 161.364V147.727H499.359V161.364H498.485ZM501.005 152.09C500.955 151.625 500.745 151.262 500.376 151.003C500.01 150.744 499.534 150.614 498.949 150.614C498.537 150.614 498.183 150.676 497.888 150.801C497.594 150.925 497.368 151.094 497.212 151.307C497.056 151.52 496.976 151.763 496.972 152.037C496.972 152.264 497.024 152.461 497.127 152.628C497.233 152.795 497.377 152.937 497.558 153.054C497.739 153.168 497.94 153.263 498.16 153.342C498.38 153.42 498.602 153.485 498.826 153.539L499.849 153.794C500.261 153.89 500.657 154.02 501.037 154.183C501.42 154.347 501.763 154.553 502.065 154.801C502.37 155.05 502.612 155.35 502.789 155.701C502.967 156.053 503.055 156.465 503.055 156.937C503.055 157.576 502.892 158.139 502.565 158.626C502.239 159.109 501.766 159.487 501.148 159.76C500.534 160.03 499.79 160.165 498.917 160.165C498.068 160.165 497.331 160.034 496.706 159.771C496.085 159.508 495.598 159.125 495.246 158.62C494.898 158.116 494.71 157.502 494.682 156.777H496.626C496.654 157.157 496.772 157.473 496.978 157.725C497.184 157.978 497.452 158.166 497.782 158.29C498.116 158.414 498.489 158.477 498.901 158.477C499.33 158.477 499.707 158.413 500.03 158.285C500.357 158.153 500.612 157.972 500.797 157.741C500.982 157.507 501.076 157.234 501.079 156.921C501.076 156.637 500.992 156.403 500.829 156.218C500.665 156.03 500.436 155.874 500.142 155.749C499.85 155.621 499.51 155.508 499.119 155.408L497.878 155.089C496.979 154.858 496.269 154.508 495.747 154.039C495.229 153.567 494.969 152.94 494.969 152.159C494.969 151.516 495.143 150.953 495.491 150.471C495.843 149.988 496.321 149.613 496.924 149.347C497.528 149.077 498.212 148.942 498.975 148.942C499.749 148.942 500.428 149.077 501.01 149.347C501.596 149.613 502.056 149.984 502.39 150.46C502.723 150.932 502.896 151.475 502.906 152.09H501.005ZM504.514 157.976V156.404L509.142 149.091H510.453V151.328H509.654L506.538 156.266V156.351H512.999V157.976H504.514ZM509.718 160V157.496L509.739 156.793V149.091H511.603V160H509.718ZM518.616 160.149C517.849 160.149 517.167 160.018 516.571 159.755C515.978 159.492 515.509 159.126 515.164 158.658C514.82 158.189 514.637 157.647 514.616 157.033H516.619C516.636 157.328 516.734 157.585 516.911 157.805C517.089 158.022 517.325 158.191 517.62 158.311C517.915 158.432 518.245 158.493 518.611 158.493C519.001 158.493 519.348 158.425 519.649 158.29C519.951 158.152 520.187 157.96 520.358 157.715C520.528 157.47 520.612 157.187 520.608 156.868C520.612 156.538 520.527 156.246 520.353 155.994C520.179 155.742 519.926 155.545 519.596 155.403C519.269 155.261 518.875 155.19 518.414 155.19H517.449V153.667H518.414C518.794 153.667 519.126 153.601 519.41 153.469C519.697 153.338 519.923 153.153 520.086 152.915C520.25 152.674 520.329 152.395 520.326 152.079C520.329 151.77 520.26 151.502 520.118 151.275C519.98 151.044 519.783 150.865 519.527 150.737C519.275 150.609 518.978 150.545 518.637 150.545C518.304 150.545 517.995 150.605 517.71 150.726C517.426 150.847 517.197 151.019 517.023 151.243C516.849 151.463 516.757 151.726 516.746 152.031H514.845C514.859 151.42 515.035 150.884 515.372 150.423C515.713 149.957 516.168 149.595 516.736 149.336C517.304 149.073 517.941 148.942 518.648 148.942C519.376 148.942 520.008 149.078 520.544 149.352C521.084 149.622 521.501 149.986 521.796 150.444C522.091 150.902 522.238 151.408 522.238 151.962C522.242 152.576 522.061 153.091 521.695 153.507C521.333 153.922 520.857 154.194 520.267 154.322V154.407C521.034 154.513 521.622 154.798 522.03 155.259C522.442 155.717 522.647 156.287 522.643 156.969C522.643 157.58 522.469 158.127 522.121 158.61C521.777 159.089 521.301 159.466 520.693 159.739C520.09 160.012 519.397 160.149 518.616 160.149ZM528.264 160.149C527.554 160.149 526.918 160.016 526.357 159.75C525.796 159.48 525.35 159.11 525.02 158.642C524.693 158.173 524.519 157.637 524.498 157.033H526.416C526.451 157.48 526.645 157.846 526.996 158.13C527.348 158.411 527.77 158.551 528.264 158.551C528.651 158.551 528.996 158.462 529.297 158.285C529.599 158.107 529.837 157.86 530.011 157.544C530.185 157.228 530.27 156.868 530.267 156.463C530.27 156.051 530.183 155.685 530.006 155.366C529.828 155.046 529.585 154.796 529.276 154.615C528.967 154.43 528.612 154.338 528.211 154.338C527.884 154.334 527.563 154.395 527.247 154.519C526.931 154.643 526.68 154.806 526.496 155.009L524.711 154.716L525.281 149.091H531.609V150.742H526.916L526.602 153.635H526.666C526.868 153.397 527.154 153.2 527.524 153.043C527.893 152.884 528.298 152.804 528.738 152.804C529.399 152.804 529.988 152.96 530.507 153.272C531.025 153.581 531.433 154.007 531.732 154.551C532.03 155.094 532.179 155.716 532.179 156.415C532.179 157.136 532.012 157.779 531.678 158.343C531.348 158.904 530.888 159.347 530.299 159.67C529.713 159.989 529.035 160.149 528.264 160.149Z" fill="white"/>
<circle cx="7.5" cy="7.5" r="7.5" transform="matrix(-1 0 0 1 489 147)" fill="#091BA9"/>
<line x1="505" y1="173" x2="505" y2="288" stroke="#29ABE2" stroke-width="4" stroke-dasharray="11 11"/>
<defs>
<filter id="filter0_d_6_113" x="165.499" y="105.5" width="632.002" height="284.206" filterUnits="userSpaceOnUse" color-interpolation-filters="sRGB">
<feFlood flood-opacity="0" result="BackgroundImageFix"/>
<feColorMatrix in="SourceAlpha" type="matrix" values="0 0 0 0 0 0 0 0 0 0 0 0 0 0 0 0 0 0 127 0" result="hardAlpha"/>
<feOffset dy="4"/>
<feGaussianBlur stdDeviation="2"/>
<feComposite in2="hardAlpha" operator="out"/>
<feColorMatrix type="matrix" values="0 0 0 0 0 0 0 0 0 0 0 0 0 0 0 0 0 0 0.25 0"/>
<feBlend mode="normal" in2="BackgroundImageFix" result="effect1_dropShadow_6_113"/>
<feBlend mode="normal" in="SourceGraphic" in2="effect1_dropShadow_6_113" result="shape"/>
</filter>
<filter id="filter1_d_6_113" x="361.499" y="231.396" width="573.003" height="208.105" filterUnits="userSpaceOnUse" color-interpolation-filters="sRGB">
<feFlood flood-opacity="0" result="BackgroundImageFix"/>
<feColorMatrix in="SourceAlpha" type="matrix" values="0 0 0 0 0 0 0 0 0 0 0 0 0 0 0 0 0 0 127 0" result="hardAlpha"/>
<feOffset dy="4"/>
<feGaussianBlur stdDeviation="2"/>
<feComposite in2="hardAlpha" operator="out"/>
<feColorMatrix type="matrix" values="0 0 0 0 0 0 0 0 0 0 0 0 0 0 0 0 0 0 0.25 0"/>
<feBlend mode="normal" in2="BackgroundImageFix" result="effect1_dropShadow_6_113"/>
<feBlend mode="normal" in="SourceGraphic" in2="effect1_dropShadow_6_113" result="shape"/>
</filter>
<filter id="filter2_f_6_113" x="482" y="278" width="42" height="42" filterUnits="userSpaceOnUse" color-interpolation-filters="sRGB">
<feFlood flood-opacity="0" result="BackgroundImageFix"/>
<feBlend mode="normal" in="SourceGraphic" in2="BackgroundImageFix" result="shape"/>
<feGaussianBlur stdDeviation="5" result="effect1_foregroundBlur_6_113"/>
</filter>
<filter id="filter3_f_6_113" x="482" y="278" width="42" height="42" filterUnits="userSpaceOnUse" color-interpolation-filters="sRGB">
<feFlood flood-opacity="0" result="BackgroundImageFix"/>
<feBlend mode="normal" in="SourceGraphic" in2="BackgroundImageFix" result="shape"/>
<feGaussianBlur stdDeviation="5" result="effect1_foregroundBlur_6_113"/>
</filter>
<linearGradient id="paint0_linear_6_113" x1="511" y1="128.705" x2="511" y2="319.705" gradientUnits="userSpaceOnUse">
<stop stop-color="#592795"/>
<stop offset="1" stop-color="#4D91A5"/>
</linearGradient>
<linearGradient id="paint1_linear_6_113" x1="648" y1="237" x2="648" y2="428" gradientUnits="userSpaceOnUse">
<stop stop-color="#1970D6"/>
<stop offset="1" stop-color="#364FB8"/>
</linearGradient>
<linearGradient id="paint2_linear_6_113" x1="346.5" y1="436" x2="346.5" y2="223" gradientUnits="userSpaceOnUse">
<stop stop-color="#592795"/>
<stop offset="1" stop-color="#4D91A5"/>
</linearGradient>
<linearGradient id="paint3_linear_6_113" x1="503" y1="288" x2="503" y2="310" gradientUnits="userSpaceOnUse">
<stop stop-color="#29ABE2"/>
<stop offset="1" stop-color="#611D8D"/>
</linearGradient>
<linearGradient id="paint4_linear_6_113" x1="503" y1="288" x2="503" y2="310" gradientUnits="userSpaceOnUse">
<stop stop-color="#29ABE2"/>
<stop offset="1" stop-color="#6C1182"/>
</linearGradient>
</defs>
</svg>
